<svg id="SvgjsSvg1014" xmlns="http://www.w3.org/2000/svg" version="1.1" xmlns:xlink="http://www.w3.org/1999/xlink" xmlns:svgjs="http://svgjs.com/svgjs" width="28" height="32"><defs id="SvgjsDefs1015"></defs><path id="SvgjsPath1016" d="M605.966 1027.47382L605.966 1026.9624199999998C602.8803800000001 1026.6690299999998 599.87056 1025.4202899999998 597.4216 1023.2161999999998L597.057 1023.5799999999998C596.904 1023.7399999999998 596.7040000000001 1023.8099999999998 596.503 1023.8099999999998C596.303 1023.8099999999998 596.1030000000001 1023.7399999999998 595.9490000000001 1023.5799999999998C595.6440000000001 1023.2799999999999 595.6440000000001 1022.7799999999999 595.9490000000001 1022.4699999999998L597.7640000000001 1020.6599999999999C598.0690000000001 1020.3499999999999 598.5650000000002 1020.3499999999999 598.8710000000001 1020.6599999999999C599.1780000000001 1020.9699999999998 599.1780000000001 1021.4599999999998 598.8710000000001 1021.7699999999999L598.5335800000001 1022.1066699999999C603.7624000000002 1026.75405 611.8047600000001 1026.58413 616.8160000000001 1021.5699999999999C621.8289300000001 1016.5551399999999 622.0074100000002 1008.5082799999999 617.3514300000002 1003.28649L617.0170000000002 1003.62C616.8640000000001 1003.78 616.6630000000001 1003.85 616.4630000000002 1003.85C616.2630000000001 1003.85 616.0620000000002 1003.78 615.9090000000002 1003.62C615.6030000000002 1003.32 615.6030000000002 1002.82 615.9090000000002 1002.52L616.7937400000002 1001.63282C616.8009700000002 1001.62509 616.8083900000001 1001.61748 616.8160000000001 1001.61C616.8226600000002 1001.60325 616.8294100000002 1001.5966500000001 616.8362500000002 1001.5902L617.7240000000002 1000.6999999999999C618.0300000000002 1000.39 618.5250000000002 1000.39 618.8320000000001 1000.6999999999999C619.1380000000001 1001.0099999999999 619.1380000000001 1001.4999999999999 618.8320000000001 1001.81L618.4630400000001 1002.1779399999999C623.72607 1008.0202899999999 623.5463900000001 1017.05567 617.9240000000001 1022.68C615.3818500000001 1025.21865 612.1415800000001 1026.64614 608.815 1026.96246L608.815 1027.47381C611.2432200000001 1027.72714 613.5426600000001 1028.6288 615.5340000000001 1030.12C615.8050000000001 1030.32 615.9140000000001 1030.6699999999998 615.8090000000001 1030.9899999999998C615.7010000000001 1031.3099999999997 615.402 1031.5299999999997 615.0640000000001 1031.5299999999997L599.715 1031.5299999999997C599.378 1031.5299999999997 599.0780000000001 1031.3099999999997 598.972 1030.9899999999998C598.865 1030.6699999999998 598.976 1030.3199999999997 599.245 1030.12C601.23713 1028.6288299999999 603.53665 1027.7271799999999 605.966 1027.47382ZM607.391 1023.19C601.299 1023.19 596.343 1018.23 596.343 1012.1400000000001C596.343 1006.0500000000001 601.299 1001.0900000000001 607.391 1001.0900000000001C613.482 1001.0900000000001 618.438 1006.0500000000002 618.438 1012.1400000000001C618.438 1018.2300000000001 613.482 1023.19 607.391 1023.19ZM607.391 1002.66C602.1619999999999 1002.66 597.909 1006.91 597.909 1012.14C597.909 1017.37 602.162 1021.62 607.391 1021.62C612.6179999999999 1021.62 616.871 1017.37 616.871 1012.14C616.871 1006.91 612.6179999999999 1002.66 607.391 1002.66ZM602.598 1029.96L612.1819999999999 1029.96C609.1789999999999 1028.65 605.6019999999999 1028.65 602.598 1029.96Z " fill="#ffffff" transform="matrix(1,0,0,1,-595,-1000)"></path></svg>