<svg id="SvgjsSvg1008" xmlns="http://www.w3.org/2000/svg" version="1.1" xmlns:xlink="http://www.w3.org/1999/xlink" xmlns:svgjs="http://svgjs.com/svgjs" width="24" height="32"><defs id="SvgjsDefs1009"></defs><path id="SvgjsPath1010" d="M192.906 1031.54L171.094 1031.54C170.661 1031.54 170.311 1031.19 170.311 1030.75L170.311 1012.79C170.311 1012.36 170.661 1012.01 171.094 1012.01L174.16 1012.01L174.16 1008.3C174.16 1003.9799999999999 177.677 1000.4599999999999 182 1000.4599999999999C186.323 1000.4599999999999 189.84 1003.9799999999999 189.84 1008.3L189.84 1012.01L192.906 1012.01C193.339 1012.01 193.689 1012.36 193.689 1012.79L193.689 1030.75C193.689 1031.19 193.339 1031.54 192.906 1031.54ZM171.877 1029.97L192.12300000000002 1029.97L192.12300000000002 1013.58L171.877 1013.58ZM181.216 1021.03458C180.83001000000002 1020.77963 180.57500000000002 1020.34275 180.57500000000002 1019.85C180.57500000000002 1019.0600000000001 181.21400000000003 1018.4200000000001 182.00000000000003 1018.4200000000001C182.78600000000003 1018.4200000000001 183.42500000000004 1019.0600000000001 183.42500000000004 1019.85C183.42500000000004 1020.34317 183.16955000000004 1020.78038 182.78300000000004 1021.03524L182.78300000000004 1024.3400000000001C182.78300000000004 1024.7700000000002 182.43300000000005 1025.1200000000001 182.00000000000006 1025.1200000000001C181.56700000000006 1025.1200000000001 181.21600000000007 1024.7700000000002 181.21600000000007 1024.3400000000001ZM188.273 1008.3C188.273 1004.8399999999999 185.459 1002.03 182 1002.03C178.541 1002.03 175.727 1004.8399999999999 175.727 1008.3L175.727 1012.01L188.273 1012.01Z " fill="#ffffff" transform="matrix(1,0,0,1,-170,-1000)"></path></svg>