<svg id="SvgjsSvg1020" xmlns="http://www.w3.org/2000/svg" version="1.1" xmlns:xlink="http://www.w3.org/1999/xlink" xmlns:svgjs="http://svgjs.com/svgjs" width="32" height="22"><defs id="SvgjsDefs1021"></defs><path id="SvgjsPath1022" d="M1041.77 1026.41L1023.81 1026.41C1022.67 1026.41 1021.7399999999999 1025.48 1021.7399999999999 1024.3400000000001L1021.7399999999999 1014.0800000000002C1021.7399999999999 1012.9400000000002 1022.6699999999998 1012.0100000000001 1023.81 1012.0100000000001L1034.57 1012.0100000000001L1034.57 1010.2300000000001C1034.57 1009.9500000000002 1034.35 1009.7300000000001 1034.08 1009.7300000000001L1021.2399999999999 1009.7300000000001C1020.81 1009.7300000000001 1020.4599999999999 1009.3800000000001 1020.4599999999999 1008.9400000000002C1020.4599999999999 1008.5100000000002 1020.81 1008.1600000000002 1021.2399999999999 1008.1600000000002L1034.08 1008.1600000000002C1035.21 1008.1600000000002 1036.1399999999999 1009.0900000000001 1036.1399999999999 1010.2300000000002L1036.1399999999999 1012.0100000000002L1039.7099999999998 1012.0100000000002L1039.7099999999998 1008.9400000000002C1039.7099999999998 1007.8000000000002 1040.6299999999999 1006.8800000000002 1041.7699999999998 1006.8800000000002L1043.7114999999997 1006.8800000000002C1044.0178199999996 1006.1246000000002 1044.7556799999998 1005.5900000000003 1045.6199999999997 1005.5900000000003L1049.4699999999996 1005.5900000000003C1050.6099999999997 1005.5900000000003 1051.5399999999995 1006.5200000000002 1051.5399999999995 1007.6600000000003C1051.5399999999995 1008.8000000000003 1050.6099999999994 1009.7300000000004 1049.4699999999996 1009.7300000000004L1045.6199999999997 1009.7300000000004C1044.7556699999996 1009.7300000000004 1044.0178099999996 1009.1954000000004 1043.7114999999997 1008.4400000000004L1041.7699999999998 1008.4400000000004C1041.4999999999998 1008.4400000000004 1041.2699999999998 1008.6700000000004 1041.2699999999998 1008.9400000000004L1041.2699999999998 1012.0100000000004L1041.7699999999998 1012.0100000000004C1042.9099999999999 1012.0100000000004 1043.8399999999997 1012.9400000000004 1043.8399999999997 1014.0800000000005L1043.8399999999997 1016.1097300000005L1049.4999999999998 1013.7500000000005C1049.9499999999998 1013.5600000000004 1050.4699999999998 1013.6100000000005 1050.8799999999999 1013.8800000000005C1051.29 1014.1600000000004 1051.54 1014.6200000000005 1051.54 1015.1100000000005L1051.54 1023.3000000000005C1051.54 1023.8000000000005 1051.29 1024.2500000000005 1050.8799999999999 1024.5300000000004C1050.6399999999999 1024.6900000000005 1050.35 1024.7800000000004 1050.06 1024.7800000000004C1049.87 1024.7800000000004 1049.6799999999998 1024.7400000000005 1049.5 1024.6600000000005L1043.84 1022.3002700000005L1043.84 1024.3400000000006C1043.84 1025.4800000000007 1042.9099999999999 1026.4100000000005 1041.77 1026.4100000000005ZM1043.84 1017.80958L1043.84 1020.6097L1049.97 1023.16L1049.97 1015.25ZM1023.81 1013.58C1023.54 1013.58 1023.31 1013.8000000000001 1023.31 1014.08L1023.31 1024.3400000000001C1023.31 1024.6200000000001 1023.54 1024.8400000000001 1023.81 1024.8400000000001L1041.77 1024.8400000000001C1042.05 1024.8400000000001 1042.27 1024.6200000000001 1042.27 1024.3400000000001L1042.27 1014.0800000000002C1042.27 1013.8000000000002 1042.05 1013.5800000000002 1041.77 1013.5800000000002ZM1028.3 1021.92C1026.81 1021.92 1025.59 1020.6999999999999 1025.59 1019.2099999999999C1025.59 1017.7099999999999 1026.81 1016.4999999999999 1028.3 1016.4999999999999L1037.28 1016.4999999999999C1037.72 1016.4999999999999 1038.07 1016.8499999999999 1038.07 1017.2799999999999C1038.07 1017.7199999999999 1037.72 1018.0699999999998 1037.28 1018.0699999999998L1034.82114 1018.0699999999998C1035.2529 1017.1417999999999 1036.19484 1016.4999999999998 1037.28 1016.4999999999998C1038.78 1016.4999999999998 1039.99 1017.7099999999998 1039.99 1019.2099999999998C1039.99 1020.6999999999998 1038.78 1021.9199999999998 1037.28 1021.9199999999998C1035.79 1021.9199999999998 1034.57 1020.6999999999998 1034.57 1019.2099999999998C1034.57 1018.8024399999998 1034.66007 1018.4162899999998 1034.82114 1018.0699999999998L1030.76047 1018.0699999999998C1030.92067 1018.4162899999998 1031.01 1018.8024399999998 1031.01 1019.2099999999998C1031.01 1020.6999999999998 1029.8 1021.9199999999998 1028.3 1021.9199999999998ZM1028.3 1018.07C1027.6699999999998 1018.07 1027.1599999999999 1018.58 1027.1599999999999 1019.21C1027.1599999999999 1019.84 1027.6699999999998 1020.35 1028.3 1020.35C1028.93 1020.35 1029.44 1019.84 1029.44 1019.21C1029.44 1018.58 1028.93 1018.07 1028.3 1018.07ZM1037.28 1018.07C1036.6499999999999 1018.07 1036.1399999999999 1018.58 1036.1399999999999 1019.21C1036.1399999999999 1019.84 1036.6499999999999 1020.35 1037.28 1020.35C1037.91 1020.35 1038.42 1019.84 1038.42 1019.21C1038.42 1018.58 1037.91 1018.07 1037.28 1018.07ZM1045.62 1007.16C1045.35 1007.16 1045.12 1007.38 1045.12 1007.66C1045.12 1007.66 1045.12 1007.66 1045.12 1007.66C1045.12 1007.9399999999999 1045.35 1008.16 1045.62 1008.16L1049.4699999999998 1008.16C1049.7499999999998 1008.16 1049.9699999999998 1007.9399999999999 1049.9699999999998 1007.66C1049.9699999999998 1007.38 1049.7499999999998 1007.16 1049.4699999999998 1007.16Z " fill="#ffffff" transform="matrix(1,0,0,1,-1020,-1005)"></path></svg>