<svg id="SvgjsSvg1017" xmlns="http://www.w3.org/2000/svg" version="1.1" xmlns:xlink="http://www.w3.org/1999/xlink" xmlns:svgjs="http://svgjs.com/svgjs" width="32" height="30"><defs id="SvgjsDefs1018"></defs><path id="SvgjsPath1019" d="M1049.47 778.67L1047.56535 778.67C1047.85644 777.7953699999999 1048.47736 777.103 1049.47 777.103C1051.34 777.103 1051.54 780.343 1051.54 781.736C1051.54 782.169 1051.19 782.52 1050.76 782.52L1048.98 782.52C1049.01 788.235 1048.73 800.712 1045.92 803.5939999999999C1045.45 804.083 1044.9 804.3309999999999 1044.3100000000002 804.3309999999999L1039.6468200000002 804.3309999999999C1039.5105400000002 805.00691 1039.2573000000002 805.6224299999999 1038.7900000000002 806.0919999999999C1038.2600000000002 806.6269999999998 1037.5300000000002 806.8969999999998 1036.6100000000001 806.8969999999998L1021.2500000000001 806.8969999999998C1021.2200000000001 806.8969999999998 1021.1900000000002 806.8949999999999 1021.1600000000001 806.8929999999998C1020.7700000000001 806.8519999999997 1020.46 806.5179999999998 1020.46 806.1139999999998C1020.46 806.0879999999999 1020.46 806.0609999999998 1020.47 806.0359999999998C1020.5 805.6849999999998 1020.77 805.4009999999998 1021.11 805.3419999999999C1021.15 805.3339999999998 1021.2 805.3299999999999 1021.25 805.3299999999999C1021.95 805.3299999999999 1022.17 805.0919999999999 1022.24 805.0139999999999C1022.74 804.4649999999999 1022.62 803.0759999999999 1022.51 801.8519999999999C1022.38 800.4019999999998 1022.25 799.0349999999999 1023 798.2189999999998C1023.24 797.9509999999998 1023.69 797.6319999999998 1024.45 797.6319999999998L1030.22 797.6319999999998C1031.49 790.6399999999999 1031.3700000000001 779.9319999999998 1031.3700000000001 779.8209999999998C1031.39 778.4999999999998 1032.0600000000002 777.1029999999998 1033.47 777.1029999999998C1033.9 777.1029999999998 1034.25 777.4529999999999 1034.25 777.8869999999998C1034.25 778.3189999999998 1033.9 778.6699999999998 1033.47 778.6699999999998C1033.03 778.6699999999998 1032.68 778.3189999999998 1032.68 777.8869999999998C1032.68 777.4529999999999 1033.03 777.1029999999998 1033.47 777.1029999999998L1049.47 777.1029999999998C1049.9 777.1029999999998 1050.26 777.4529999999999 1050.26 777.8869999999998C1050.26 778.3189999999998 1049.9 778.6699999999998 1049.47 778.6699999999998ZM1047.56535 778.67L1033.47 778.67C1033.05 778.67 1032.94 779.637 1032.93 779.827C1032.93957 780.25388 1033.04991 790.50879 1031.8142400000002 797.632L1040.4600000000003 797.632C1041.1500000000003 797.632 1041.6900000000003 797.827 1042.0700000000002 798.2109999999999C1042.7100000000003 798.853 1042.7000000000003 799.8159999999999 1042.69 800.6679999999999C1042.68 801.3639999999999 1042.67 802.0859999999999 1043 802.4189999999999C1043.23 802.6479999999999 1043.67 802.7649999999999 1044.31 802.7649999999999C1044.37 802.7649999999999 1044.54 802.7649999999999 1044.8 802.5009999999999C1047.08 800.1579999999999 1047.46 788.1519999999998 1047.4099999999999 781.7869999999998C1047.4099999999999 781.7709999999998 1047.4099999999999 781.7539999999998 1047.4099999999999 781.7359999999998C1047.4099999999999 781.7229999999997 1047.4099999999999 781.7109999999998 1047.4099999999999 781.6969999999998C1047.3999999999999 780.9989999999998 1047.3899999999999 780.3699999999998 1047.37 779.8319999999998C1047.37888 779.4377199999998 1047.4429599999999 779.0377499999997 1047.5653499999999 778.6699999999997ZM1038.43563 799.198L1024.45 799.198C1024.3 799.198 1024.2 799.225 1024.16 799.275C1023.8800000000001 799.582 1023.9900000000001 800.812 1024.0700000000002 801.7099999999999C1024.18 802.9369999999999 1024.3000000000002 804.2939999999999 1023.8700000000001 805.3299999999999L1036.6100000000001 805.3299999999999C1037.1000000000001 805.3299999999999 1037.45 805.218 1037.68 804.987C1038.25 804.415 1038.24 803.019 1038.23 801.7869999999999C1038.22345 800.84444 1038.21689 799.9358199999999 1038.43563 799.1979999999999ZM1043.7 796.633L1034.72 796.633C1034.28 796.633 1033.93 796.282 1033.93 795.85C1033.93 795.416 1034.28 795.065 1034.72 795.065L1043.7 795.065C1044.13 795.065 1044.48 795.416 1044.48 795.85C1044.48 796.282 1044.13 796.633 1043.7 796.633ZM1044.34 791.5L1035.36 791.5C1034.9299999999998 791.5 1034.57 791.15 1034.57 790.717C1034.57 790.284 1034.9299999999998 789.934 1035.36 789.934L1044.34 789.934C1044.77 789.934 1045.12 790.284 1045.12 790.717C1045.12 791.15 1044.77 791.5 1044.34 791.5ZM1043.7 788.935L1035.3600000000001 788.935C1034.93 788.935 1034.5700000000002 788.584 1034.5700000000002 788.151C1034.5700000000002 787.718 1034.93 787.367 1035.3600000000001 787.367L1043.7 787.367C1044.13 787.367 1044.48 787.718 1044.48 788.151C1044.48 788.584 1044.13 788.935 1043.7 788.935ZM1043.06 794.066L1035.36 794.066C1034.9299999999998 794.066 1034.57 793.716 1034.57 793.283C1034.57 792.849 1034.9299999999998 792.5 1035.36 792.5L1043.06 792.5C1043.49 792.5 1043.84 792.849 1043.84 793.283C1043.84 793.716 1043.49 794.066 1043.06 794.066ZM1044.34 786.368L1037.28 786.368C1036.85 786.368 1036.5 786.018 1036.5 785.585C1036.5 785.152 1036.85 784.802 1037.28 784.802L1044.34 784.802C1044.77 784.802 1045.12 785.152 1045.12 785.585C1045.12 786.018 1044.77 786.368 1044.34 786.368ZM1039.79663 802.765L1041.39049 802.765C1041.10571 802.08547 1041.11285 801.31029 1041.12 800.65C1041.1299999999999 800.134 1041.1299999999999 799.491 1040.9599999999998 799.313C1040.8899999999999 799.24 1040.6999999999998 799.198 1040.4599999999998 799.198C1040.2099999999998 799.198 1040.1399999999999 799.2719999999999 1040.11 799.3009999999999C1039.78 799.632 1039.79 800.8199999999999 1039.8 801.776C1039.8020999999999 802.09935 1039.80421 802.4318599999999 1039.79663 802.765ZM1038.57 783.803L1036 783.803C1035.57 783.803 1035.22 783.452 1035.22 783.02C1035.22 782.586 1035.57 782.235 1036 782.235L1038.57 782.235C1039 782.235 1039.35 782.586 1039.35 783.02C1039.35 783.452 1039 783.803 1038.57 783.803ZM1048.97 780.952L1049.94 780.952C1049.8600000000001 779.898 1049.65 778.922 1049.42 778.675C1049.01 778.762 1048.94 779.813 1048.94 779.824C1048.95 780.035 1048.96 780.423 1048.97 780.952Z " fill="#ffffff" transform="matrix(1,0,0,1,-1020,-777)"></path></svg>