<svg id="SvgjsSvg1000" xmlns="http://www.w3.org/2000/svg" version="1.1" xmlns:xlink="http://www.w3.org/1999/xlink" xmlns:svgjs="http://svgjs.com/svgjs" width="26" height="32"><defs id="SvgjsDefs1001"></defs><path id="SvgjsPath1007" d="M184.129 809.539L182.846 809.539C181.846 809.539 179.934 808.711 179.934 807.415L179.934 797.793C179.934 796.46247 181.27992 795.4973 182.5 795.18901L182.5 792.075C182.5 791.8040000000001 182.271 791.576 182 791.576L171.735 791.576C170.596 791.576 169.669 790.648 169.669 789.509L169.669 784.3770000000001C169.669 783.238 170.596 782.311 171.735 782.311L172.235 782.311L172.235 779.245C172.235 778.811 172.586 778.461 173.019 778.461L192.264 778.461C192.697 778.461 193.048 778.811 193.048 779.245L193.048 782.311L193.548 782.311C193.98 782.311 194.331 782.6610000000001 194.331 783.094C194.331 783.527 193.98 783.8770000000001 193.548 783.8770000000001L193.048 783.8770000000001L193.048 786.9430000000001C193.048 787.3760000000001 192.697 787.7270000000001 192.264 787.7270000000001L173.019 787.7270000000001C172.586 787.7270000000001 172.235 787.3760000000001 172.235 786.9430000000001L172.235 783.8770000000001L171.735 783.8770000000001C171.46 783.8770000000001 171.23600000000002 784.1020000000001 171.23600000000002 784.3770000000001L171.23600000000002 789.509C171.23600000000002 789.78 171.46500000000003 790.008 171.735 790.008L182 790.008C183.14 790.008 184.067 790.936 184.067 792.075L184.067 795.1893600000001C185.28642000000002 795.4980200000001 186.632 796.4629600000001 186.632 797.7930000000001L186.632 807.4150000000001C186.632 808.5910000000001 185.263 809.5390000000001 184.12900000000002 809.5390000000001ZM173.802 786.16L191.481 786.16L191.481 780.028L173.802 780.028ZM183.283 796.651C182.517 796.651 181.50099999999998 797.3019999999999 181.50099999999998 797.793L181.50099999999998 807.415C181.599 807.5699999999999 182.402 807.971 182.84599999999998 807.971L184.12899999999996 807.971C184.50799999999995 807.971 185.04199999999997 807.593 185.06599999999997 807.413L185.06599999999997 797.793C185.06599999999997 797.302 184.04999999999998 796.651 183.283 796.651Z " fill="#ffffff" transform="matrix(1,0,0,1,-169,-778)"></path></svg>