<svg id="SvgjsSvg1011" xmlns="http://www.w3.org/2000/svg" version="1.1" xmlns:xlink="http://www.w3.org/1999/xlink" xmlns:svgjs="http://svgjs.com/svgjs" width="32" height="28"><defs id="SvgjsDefs1012"></defs><path id="SvgjsPath1013" d="M609 802.352C608.478 802.352 607.981 802.3149999999999 607.602 802.25L607.217 802.18303L607.217 804.17547C607.80315 804.14007 608.39867 804.1220000000001 609 804.1220000000001C609.60133 804.1220000000001 610.19685 804.14007 610.783 804.17547L610.783 802.18303L610.398 802.25C610.019 802.315 609.522 802.352 609 802.352ZM606.68157 805.78318C606.60379 805.8090100000001 606.52055 805.823 606.434 805.823C606.39671 805.823 606.3600299999999 805.8204 606.32413 805.81538C603.788 806.06125 601.5141 806.65482 599.857 807.524C599.4739999999999 807.725 599.001 807.577 598.8 807.193C598.5989999999999 806.811 598.746 806.337 599.13 806.136C600.8405 805.23869 603.1196 804.6097 605.65 804.3138L605.65 801.9104600000001L595.374 800.123C594.302 799.937 593.461 798.9380000000001 593.461 797.8480000000001L593.461 782.4530000000001C593.461 781.3130000000001 594.389 780.3860000000001 595.528 780.3860000000001L622.472 780.3860000000001C623.611 780.3860000000001 624.539 781.3130000000001 624.539 782.4530000000001L624.539 797.8480000000001C624.539 798.9380000000001 623.698 799.9370000000001 622.625 800.123L612.35 801.91043L612.35 804.3138C614.8804 804.6097 617.1595 805.23868 618.87 806.136C619.253 806.337 619.401 806.8109999999999 619.2 807.193C619.0590000000001 807.461 618.788 807.614 618.505 807.614C618.383 807.614 618.258 807.585 618.143 807.524C615.919 806.358 612.587 805.688 609 805.688C608.2119 805.688 607.43606 805.72034 606.68157 805.78318ZM595.528 781.953C595.2570000000001 781.953 595.028 782.182 595.028 782.453L595.028 797.848C595.028 798.175 595.321 798.524 595.643 798.579L607.87 800.7059999999999C608.448 800.8069999999999 609.552 800.8069999999999 610.13 800.7059999999999L622.357 798.579C622.679 798.524 622.972 798.175 622.972 797.848L622.972 782.453C622.972 782.182 622.7429999999999 781.953 622.472 781.953ZM621.189 797.35L596.8109999999999 797.35C596.3779999999999 797.35 596.0279999999999 796.999 596.0279999999999 796.566L596.0279999999999 783.735C596.0279999999999 783.303 596.3779999999999 782.952 596.8109999999999 782.952L621.189 782.952C621.622 782.952 621.972 783.303 621.972 783.735L621.972 796.566C621.972 796.999 621.622 797.35 621.189 797.35ZM597.595 795.783L620.4060000000001 795.783L620.4060000000001 784.519L597.595 784.519ZM609 798.49C609.355 798.49 609.642 798.777 609.642 799.131C609.642 799.486 609.355 799.773 609 799.773C608.646 799.773 608.358 799.486 608.358 799.131C608.358 798.7769999999999 608.646 798.49 609 798.49Z " fill="#ffffff" transform="matrix(1,0,0,1,-593,-780)"></path></svg>